<?xml version="1.0" encoding="UTF-8" standalone="no"?>
<!DOCTYPE svg PUBLIC "-//W3C//DTD SVG 1.1//EN"
 "http://www.w3.org/Graphics/SVG/1.1/DTD/svg11.dtd">
<!-- Generated by graphviz version 2.44.1 (20200629.0846)
 -->
<!-- Title: dependencies Pages: 1 -->
<svg width="1227pt" height="287pt"
 viewBox="0.00 0.00 1227.00 287.00" xmlns="http://www.w3.org/2000/svg" xmlns:xlink="http://www.w3.org/1999/xlink">
<g id="graph0" class="graph" transform="scale(1 1) rotate(0) translate(4 283)">
<title>dependencies</title>
<polygon fill="white" stroke="transparent" points="-4,4 -4,-283 1223,-283 1223,4 -4,4"/>
<text text-anchor="start" x="588.51" y="-42.4" font-family="sans-serif" font-weight="bold" font-size="14.00">Legend</text>
<polygon fill="#ffffb3" stroke="transparent" points="375.5,-10 375.5,-30 395.5,-30 395.5,-10 375.5,-10"/>
<text text-anchor="start" x="399.13" y="-15.4" font-family="sans-serif" font-size="14.00"> &#160;Declarations</text>
<polygon fill="#8dd3c7" stroke="transparent" points="488.5,-10 488.5,-30 508.5,-30 508.5,-10 488.5,-10"/>
<text text-anchor="start" x="512.23" y="-15.4" font-family="sans-serif" font-size="14.00"> &#160;Module</text>
<polygon fill="#80b1d3" stroke="transparent" points="574.5,-10 574.5,-30 594.5,-30 594.5,-10 574.5,-10"/>
<text text-anchor="start" x="598.28" y="-15.4" font-family="sans-serif" font-size="14.00"> &#160;Bootstrap</text>
<polygon fill="#fdb462" stroke="transparent" points="671.5,-10 671.5,-30 691.5,-30 691.5,-10 671.5,-10"/>
<text text-anchor="start" x="695.17" y="-15.4" font-family="sans-serif" font-size="14.00"> &#160;Providers</text>
<polygon fill="#fb8072" stroke="transparent" points="767.5,-10 767.5,-30 787.5,-30 787.5,-10 767.5,-10"/>
<text text-anchor="start" x="791.23" y="-15.4" font-family="sans-serif" font-size="14.00"> &#160;Exports</text>
<g id="clust1" class="cluster">
<title>cluster_AppModule</title>
<polygon fill="none" stroke="black" stroke-dasharray="1,5" points="27,-146 27,-271 1136,-271 1136,-146 27,-146"/>
</g>
<g id="clust3" class="cluster">
<title>cluster_AppModule_imports</title>
<polygon fill="none" stroke="black" points="173,-154 173,-206 1128,-206 1128,-154 173,-154"/>
</g>
<g id="clust6" class="cluster">
<title>cluster_AppModule_providers</title>
<polygon fill="none" stroke="black" points="35,-154 35,-206 165,-206 165,-154 35,-154"/>
</g>
<g id="clust7" class="cluster">
<title>cluster_AppsModule</title>
<polygon fill="none" stroke="black" stroke-dasharray="1,5" points="701,-70 701,-138 853,-138 853,-70 701,-70"/>
</g>
<g id="clust12" class="cluster">
<title>cluster_AppsModule_providers</title>
<polygon fill="none" stroke="black" points="709,-78 709,-130 845,-130 845,-78 709,-78"/>
</g>
<g id="clust13" class="cluster">
<title>cluster_AudienceModule</title>
<polygon fill="none" stroke="black" stroke-dasharray="1,5" points="861,-70 861,-138 1047,-138 1047,-70 861,-70"/>
</g>
<g id="clust18" class="cluster">
<title>cluster_AudienceModule_providers</title>
<polygon fill="none" stroke="black" points="869,-78 869,-130 1039,-130 1039,-78 869,-78"/>
</g>
<g id="clust19" class="cluster">
<title>cluster_AuthModule</title>
<polygon fill="none" stroke="black" stroke-dasharray="1,5" points="8,-70 8,-138 418,-138 418,-70 8,-70"/>
</g>
<g id="clust22" class="cluster">
<title>cluster_AuthModule_exports</title>
<polygon fill="none" stroke="black" points="300,-78 300,-130 410,-130 410,-78 300,-78"/>
</g>
<g id="clust24" class="cluster">
<title>cluster_AuthModule_providers</title>
<polygon fill="none" stroke="black" points="16,-78 16,-130 292,-130 292,-78 16,-78"/>
</g>
<g id="clust49" class="cluster">
<title>cluster_UsersModule</title>
<polygon fill="none" stroke="black" stroke-dasharray="1,5" points="1055,-70 1055,-138 1211,-138 1211,-70 1055,-70"/>
</g>
<g id="clust54" class="cluster">
<title>cluster_UsersModule_providers</title>
<polygon fill="none" stroke="black" points="1063,-78 1063,-130 1203,-130 1203,-78 1063,-78"/>
</g>
<!-- AppsModule -->
<g id="node1" class="node">
<title>AppsModule</title>
<polygon fill="#8dd3c7" stroke="black" points="879.6,-198 876.6,-202 855.6,-202 852.6,-198 790.4,-198 790.4,-162 879.6,-162 879.6,-198"/>
<text text-anchor="middle" x="835" y="-175.8" font-family="Times,serif" font-size="14.00">AppsModule</text>
</g>
<!-- AppModule -->
<g id="node8" class="node">
<title>AppModule</title>
<polygon fill="#8dd3c7" stroke="black" points="654.66,-263 651.66,-267 630.66,-267 627.66,-263 571.34,-263 571.34,-227 654.66,-227 654.66,-263"/>
<text text-anchor="middle" x="613" y="-240.8" font-family="Times,serif" font-size="14.00">AppModule</text>
</g>
<!-- AppsModule&#45;&gt;AppModule -->
<g id="edge1" class="edge">
<title>AppsModule&#45;&gt;AppModule</title>
<path fill="none" stroke="black" d="M835,-198.03C835,-214.4 835,-236 835,-236 835,-236 664.76,-236 664.76,-236"/>
<polygon fill="black" stroke="black" points="664.76,-232.5 654.76,-236 664.76,-239.5 664.76,-232.5"/>
</g>
<!-- AudienceModule -->
<g id="node2" class="node">
<title>AudienceModule</title>
<polygon fill="#8dd3c7" stroke="black" points="1010.69,-198 1007.69,-202 986.69,-202 983.69,-198 897.31,-198 897.31,-162 1010.69,-162 1010.69,-198"/>
<text text-anchor="middle" x="954" y="-175.8" font-family="Times,serif" font-size="14.00">AudienceModule</text>
</g>
<!-- AudienceModule&#45;&gt;AppModule -->
<g id="edge2" class="edge">
<title>AudienceModule&#45;&gt;AppModule</title>
<path fill="none" stroke="black" d="M954,-198.11C954,-217.34 954,-245 954,-245 954,-245 664.81,-245 664.81,-245"/>
<polygon fill="black" stroke="black" points="664.81,-241.5 654.81,-245 664.81,-248.5 664.81,-241.5"/>
</g>
<!-- AuthModule -->
<g id="node3" class="node">
<title>AuthModule</title>
<polygon fill="#8dd3c7" stroke="black" points="268.55,-198 265.55,-202 244.55,-202 241.55,-198 181.45,-198 181.45,-162 268.55,-162 268.55,-198"/>
<text text-anchor="middle" x="225" y="-175.8" font-family="Times,serif" font-size="14.00">AuthModule</text>
</g>
<!-- AuthModule&#45;&gt;AppModule -->
<g id="edge3" class="edge">
<title>AuthModule&#45;&gt;AppModule</title>
<path fill="none" stroke="black" d="M225,-198.11C225,-217.34 225,-245 225,-245 225,-245 561.11,-245 561.11,-245"/>
<polygon fill="black" stroke="black" points="561.11,-248.5 571.11,-245 561.11,-241.5 561.11,-248.5"/>
</g>
<!-- JWTStrategy  -->
<g id="node12" class="node">
<title>JWTStrategy </title>
<polygon fill="#fb8072" stroke="black" points="401.87,-122 308.13,-122 308.13,-86 401.87,-86 401.87,-122"/>
<text text-anchor="middle" x="355" y="-99.8" font-family="Times,serif" font-size="14.00">JWTStrategy </text>
</g>
<!-- AuthModule&#45;&gt;JWTStrategy  -->
<g id="edge11" class="edge">
<title>AuthModule&#45;&gt;JWTStrategy </title>
<path fill="none" stroke="black" stroke-dasharray="5,2" d="M239.59,-161.89C239.59,-152.1 239.59,-142 239.59,-142 239.59,-142 355,-142 355,-142 355,-142 355,-132.11 355,-132.11"/>
<polygon fill="black" stroke="black" points="358.5,-132.11 355,-122.11 351.5,-132.11 358.5,-132.11"/>
</g>
<!-- ContactModesModule -->
<g id="node4" class="node">
<title>ContactModesModule</title>
<polygon fill="#8dd3c7" stroke="black" points="772.7,-198 769.7,-202 748.7,-202 745.7,-198 631.3,-198 631.3,-162 772.7,-162 772.7,-198"/>
<text text-anchor="middle" x="702" y="-175.8" font-family="Times,serif" font-size="14.00">ContactModesModule</text>
</g>
<!-- ContactModesModule&#45;&gt;AppModule -->
<g id="edge4" class="edge">
<title>ContactModesModule&#45;&gt;AppModule</title>
<path fill="none" stroke="black" d="M643.11,-198.11C643.11,-198.11 643.11,-216.99 643.11,-216.99"/>
<polygon fill="black" stroke="black" points="639.61,-216.99 643.11,-226.99 646.61,-216.99 639.61,-216.99"/>
</g>
<!-- NotificationTrackersModule -->
<g id="node5" class="node">
<title>NotificationTrackersModule</title>
<polygon fill="#8dd3c7" stroke="black" points="613.16,-198 610.16,-202 589.16,-202 586.16,-198 436.84,-198 436.84,-162 613.16,-162 613.16,-198"/>
<text text-anchor="middle" x="525" y="-175.8" font-family="Times,serif" font-size="14.00">NotificationTrackersModule</text>
</g>
<!-- NotificationTrackersModule&#45;&gt;AppModule -->
<g id="edge5" class="edge">
<title>NotificationTrackersModule&#45;&gt;AppModule</title>
<path fill="none" stroke="black" d="M592.13,-198.11C592.13,-198.11 592.13,-216.99 592.13,-216.99"/>
<polygon fill="black" stroke="black" points="588.63,-216.99 592.13,-226.99 595.63,-216.99 588.63,-216.99"/>
</g>
<!-- NotificationsModule -->
<g id="node6" class="node">
<title>NotificationsModule</title>
<polygon fill="#8dd3c7" stroke="black" points="419.14,-198 416.14,-202 395.14,-202 392.14,-198 286.86,-198 286.86,-162 419.14,-162 419.14,-198"/>
<text text-anchor="middle" x="353" y="-175.8" font-family="Times,serif" font-size="14.00">NotificationsModule</text>
</g>
<!-- NotificationsModule&#45;&gt;AppModule -->
<g id="edge6" class="edge">
<title>NotificationsModule&#45;&gt;AppModule</title>
<path fill="none" stroke="black" d="M353,-198.03C353,-214.4 353,-236 353,-236 353,-236 561.23,-236 561.23,-236"/>
<polygon fill="black" stroke="black" points="561.23,-239.5 571.23,-236 561.23,-232.5 561.23,-239.5"/>
</g>
<!-- UsersModule -->
<g id="node7" class="node">
<title>UsersModule</title>
<polygon fill="#8dd3c7" stroke="black" points="1119.92,-198 1116.92,-202 1095.92,-202 1092.92,-198 1028.08,-198 1028.08,-162 1119.92,-162 1119.92,-198"/>
<text text-anchor="middle" x="1074" y="-175.8" font-family="Times,serif" font-size="14.00">UsersModule</text>
</g>
<!-- UsersModule&#45;&gt;AppModule -->
<g id="edge7" class="edge">
<title>UsersModule&#45;&gt;AppModule</title>
<path fill="none" stroke="black" d="M1074,-198.29C1074,-220.21 1074,-254 1074,-254 1074,-254 664.72,-254 664.72,-254"/>
<polygon fill="black" stroke="black" points="664.72,-250.5 654.72,-254 664.72,-257.5 664.72,-250.5"/>
</g>
<!-- AppService -->
<g id="node9" class="node">
<title>AppService</title>
<ellipse fill="#fdb462" stroke="black" cx="100" cy="-180" rx="56.74" ry="18"/>
<text text-anchor="middle" x="100" y="-175.8" font-family="Times,serif" font-size="14.00">AppService</text>
</g>
<!-- AppService&#45;&gt;AppModule -->
<g id="edge8" class="edge">
<title>AppService&#45;&gt;AppModule</title>
<path fill="none" stroke="black" d="M100,-198.29C100,-220.21 100,-254 100,-254 100,-254 561.02,-254 561.02,-254"/>
<polygon fill="black" stroke="black" points="561.02,-257.5 571.02,-254 561.02,-250.5 561.02,-257.5"/>
</g>
<!-- AppsService -->
<g id="node10" class="node">
<title>AppsService</title>
<ellipse fill="#fdb462" stroke="black" cx="777" cy="-104" rx="60.25" ry="18"/>
<text text-anchor="middle" x="777" y="-99.8" font-family="Times,serif" font-size="14.00">AppsService</text>
</g>
<!-- AppsService&#45;&gt;AppsModule -->
<g id="edge9" class="edge">
<title>AppsService&#45;&gt;AppsModule</title>
<path fill="none" stroke="black" d="M813.91,-118.3C813.91,-118.3 813.91,-151.73 813.91,-151.73"/>
<polygon fill="black" stroke="black" points="810.41,-151.73 813.91,-161.73 817.41,-151.73 810.41,-151.73"/>
</g>
<!-- AudienceService -->
<g id="node11" class="node">
<title>AudienceService</title>
<ellipse fill="#fdb462" stroke="black" cx="954" cy="-104" rx="76.98" ry="18"/>
<text text-anchor="middle" x="954" y="-99.8" font-family="Times,serif" font-size="14.00">AudienceService</text>
</g>
<!-- AudienceService&#45;&gt;AudienceModule -->
<g id="edge10" class="edge">
<title>AudienceService&#45;&gt;AudienceModule</title>
<path fill="none" stroke="black" d="M954,-122.01C954,-122.01 954,-151.85 954,-151.85"/>
<polygon fill="black" stroke="black" points="950.5,-151.85 954,-161.85 957.5,-151.85 950.5,-151.85"/>
</g>
<!-- AuthService -->
<g id="node13" class="node">
<title>AuthService</title>
<ellipse fill="#fdb462" stroke="black" cx="225" cy="-104" rx="59.11" ry="18"/>
<text text-anchor="middle" x="225" y="-99.8" font-family="Times,serif" font-size="14.00">AuthService</text>
</g>
<!-- AuthService&#45;&gt;AuthModule -->
<g id="edge12" class="edge">
<title>AuthService&#45;&gt;AuthModule</title>
<path fill="none" stroke="black" d="M210.41,-121.63C210.41,-121.63 210.41,-151.94 210.41,-151.94"/>
<polygon fill="black" stroke="black" points="206.91,-151.94 210.41,-161.94 213.91,-151.94 206.91,-151.94"/>
</g>
<!-- JWTStrategy -->
<g id="node14" class="node">
<title>JWTStrategy</title>
<ellipse fill="#fdb462" stroke="black" cx="86" cy="-104" rx="61.98" ry="18"/>
<text text-anchor="middle" x="86" y="-99.8" font-family="Times,serif" font-size="14.00">JWTStrategy</text>
</g>
<!-- JWTStrategy&#45;&gt;AuthModule -->
<g id="edge13" class="edge">
<title>JWTStrategy&#45;&gt;AuthModule</title>
<path fill="none" stroke="black" d="M148.07,-104C155.86,-104 161.16,-104 161.16,-104 161.16,-104 161.16,-180 161.16,-180 161.16,-180 171.36,-180 171.36,-180"/>
<polygon fill="black" stroke="black" points="171.36,-183.5 181.36,-180 171.36,-176.5 171.36,-183.5"/>
</g>
<!-- UsersService -->
<g id="node15" class="node">
<title>UsersService</title>
<ellipse fill="#fdb462" stroke="black" cx="1133" cy="-104" rx="61.95" ry="18"/>
<text text-anchor="middle" x="1133" y="-99.8" font-family="Times,serif" font-size="14.00">UsersService</text>
</g>
<!-- UsersService&#45;&gt;UsersModule -->
<g id="edge14" class="edge">
<title>UsersService&#45;&gt;UsersModule</title>
<path fill="none" stroke="black" d="M1095.37,-118.65C1095.37,-118.65 1095.37,-151.9 1095.37,-151.9"/>
<polygon fill="black" stroke="black" points="1091.87,-151.9 1095.37,-161.9 1098.87,-151.9 1091.87,-151.9"/>
</g>
</g>
</svg>
