<?xml version="1.0" encoding="UTF-8" standalone="no"?>
<!DOCTYPE svg PUBLIC "-//W3C//DTD SVG 1.1//EN"
 "http://www.w3.org/Graphics/SVG/1.1/DTD/svg11.dtd">
<!-- Generated by graphviz version 2.44.1 (20200629.0846)
 -->
<!-- Title: dependencies Pages: 1 -->
<svg width="504pt" height="284pt"
 viewBox="0.00 0.00 504.00 284.00" xmlns="http://www.w3.org/2000/svg" xmlns:xlink="http://www.w3.org/1999/xlink">
<g id="graph0" class="graph" transform="scale(1 1) rotate(0) translate(4 280)">
<title>dependencies</title>
<polygon fill="white" stroke="transparent" points="-4,4 -4,-280 500,-280 500,4 -4,4"/>
<text text-anchor="start" x="227.01" y="-42.4" font-family="sans-serif" font-weight="bold" font-size="14.00">Legend</text>
<polygon fill="#ffffb3" stroke="transparent" points="14,-10 14,-30 34,-30 34,-10 14,-10"/>
<text text-anchor="start" x="37.63" y="-15.4" font-family="sans-serif" font-size="14.00"> &#160;Declarations</text>
<polygon fill="#8dd3c7" stroke="transparent" points="127,-10 127,-30 147,-30 147,-10 127,-10"/>
<text text-anchor="start" x="150.73" y="-15.4" font-family="sans-serif" font-size="14.00"> &#160;Module</text>
<polygon fill="#80b1d3" stroke="transparent" points="213,-10 213,-30 233,-30 233,-10 213,-10"/>
<text text-anchor="start" x="236.78" y="-15.4" font-family="sans-serif" font-size="14.00"> &#160;Bootstrap</text>
<polygon fill="#fdb462" stroke="transparent" points="310,-10 310,-30 330,-30 330,-10 310,-10"/>
<text text-anchor="start" x="333.67" y="-15.4" font-family="sans-serif" font-size="14.00"> &#160;Providers</text>
<polygon fill="#fb8072" stroke="transparent" points="406,-10 406,-30 426,-30 426,-10 406,-10"/>
<text text-anchor="start" x="429.73" y="-15.4" font-family="sans-serif" font-size="14.00"> &#160;Exports</text>
<g id="clust1" class="cluster">
<title>cluster_AuthModule</title>
<polygon fill="none" stroke="black" stroke-dasharray="1,5" points="102,-70 102,-268 394,-268 394,-70 102,-70"/>
</g>
<g id="clust4" class="cluster">
<title>cluster_AuthModule_exports</title>
<polygon fill="none" stroke="black" points="194,-208 194,-260 304,-260 304,-208 194,-208"/>
</g>
<g id="clust6" class="cluster">
<title>cluster_AuthModule_providers</title>
<polygon fill="none" stroke="black" points="110,-78 110,-130 386,-130 386,-78 110,-78"/>
</g>
<!-- JWTStrategy  -->
<g id="node1" class="node">
<title>JWTStrategy </title>
<polygon fill="#fb8072" stroke="black" points="295.87,-252 202.13,-252 202.13,-216 295.87,-216 295.87,-252"/>
<text text-anchor="middle" x="249" y="-229.8" font-family="Times,serif" font-size="14.00">JWTStrategy </text>
</g>
<!-- AuthModule -->
<g id="node2" class="node">
<title>AuthModule</title>
<polygon fill="#8dd3c7" stroke="black" points="292.55,-187 289.55,-191 268.55,-191 265.55,-187 205.45,-187 205.45,-151 292.55,-151 292.55,-187"/>
<text text-anchor="middle" x="249" y="-164.8" font-family="Times,serif" font-size="14.00">AuthModule</text>
</g>
<!-- AuthModule&#45;&gt;JWTStrategy  -->
<g id="edge1" class="edge">
<title>AuthModule&#45;&gt;JWTStrategy </title>
<path fill="none" stroke="black" stroke-dasharray="5,2" d="M249,-187.11C249,-187.11 249,-205.99 249,-205.99"/>
<polygon fill="black" stroke="black" points="245.5,-205.99 249,-215.99 252.5,-205.99 245.5,-205.99"/>
</g>
<!-- AuthService -->
<g id="node3" class="node">
<title>AuthService</title>
<ellipse fill="#fdb462" stroke="black" cx="319" cy="-104" rx="59.11" ry="18"/>
<text text-anchor="middle" x="319" y="-99.8" font-family="Times,serif" font-size="14.00">AuthService</text>
</g>
<!-- AuthService&#45;&gt;AuthModule -->
<g id="edge2" class="edge">
<title>AuthService&#45;&gt;AuthModule</title>
<path fill="none" stroke="black" d="M276.23,-116.53C276.23,-116.53 276.23,-140.85 276.23,-140.85"/>
<polygon fill="black" stroke="black" points="272.73,-140.85 276.23,-150.85 279.73,-140.85 272.73,-140.85"/>
</g>
<!-- JWTStrategy -->
<g id="node4" class="node">
<title>JWTStrategy</title>
<ellipse fill="#fdb462" stroke="black" cx="180" cy="-104" rx="61.98" ry="18"/>
<text text-anchor="middle" x="180" y="-99.8" font-family="Times,serif" font-size="14.00">JWTStrategy</text>
</g>
<!-- JWTStrategy&#45;&gt;AuthModule -->
<g id="edge3" class="edge">
<title>JWTStrategy&#45;&gt;AuthModule</title>
<path fill="none" stroke="black" d="M223.61,-116.84C223.61,-116.84 223.61,-140.52 223.61,-140.52"/>
<polygon fill="black" stroke="black" points="220.11,-140.52 223.61,-150.52 227.11,-140.52 220.11,-140.52"/>
</g>
</g>
</svg>
