<?xml version="1.0" encoding="UTF-8" standalone="no"?>
<!DOCTYPE svg PUBLIC "-//W3C//DTD SVG 1.1//EN"
 "http://www.w3.org/Graphics/SVG/1.1/DTD/svg11.dtd">
<!-- Generated by graphviz version 2.44.1 (20200629.0846)
 -->
<!-- Title: dependencies Pages: 1 -->
<svg width="1133pt" height="211pt"
 viewBox="0.00 0.00 1133.00 211.00" xmlns="http://www.w3.org/2000/svg" xmlns:xlink="http://www.w3.org/1999/xlink">
<g id="graph0" class="graph" transform="scale(1 1) rotate(0) translate(4 207)">
<title>dependencies</title>
<polygon fill="white" stroke="transparent" points="-4,4 -4,-207 1129,-207 1129,4 -4,4"/>
<text text-anchor="start" x="541.51" y="-42.4" font-family="sans-serif" font-weight="bold" font-size="14.00">Legend</text>
<polygon fill="#ffffb3" stroke="transparent" points="328.5,-10 328.5,-30 348.5,-30 348.5,-10 328.5,-10"/>
<text text-anchor="start" x="352.13" y="-15.4" font-family="sans-serif" font-size="14.00"> &#160;Declarations</text>
<polygon fill="#8dd3c7" stroke="transparent" points="441.5,-10 441.5,-30 461.5,-30 461.5,-10 441.5,-10"/>
<text text-anchor="start" x="465.23" y="-15.4" font-family="sans-serif" font-size="14.00"> &#160;Module</text>
<polygon fill="#80b1d3" stroke="transparent" points="527.5,-10 527.5,-30 547.5,-30 547.5,-10 527.5,-10"/>
<text text-anchor="start" x="551.28" y="-15.4" font-family="sans-serif" font-size="14.00"> &#160;Bootstrap</text>
<polygon fill="#fdb462" stroke="transparent" points="624.5,-10 624.5,-30 644.5,-30 644.5,-10 624.5,-10"/>
<text text-anchor="start" x="648.17" y="-15.4" font-family="sans-serif" font-size="14.00"> &#160;Providers</text>
<polygon fill="#fb8072" stroke="transparent" points="720.5,-10 720.5,-30 740.5,-30 740.5,-10 720.5,-10"/>
<text text-anchor="start" x="744.23" y="-15.4" font-family="sans-serif" font-size="14.00"> &#160;Exports</text>
<g id="clust1" class="cluster">
<title>cluster_AppModule</title>
<polygon fill="none" stroke="black" stroke-dasharray="1,5" points="8,-70 8,-195 1117,-195 1117,-70 8,-70"/>
</g>
<g id="clust6" class="cluster">
<title>cluster_AppModule_providers</title>
<polygon fill="none" stroke="black" points="979,-78 979,-130 1109,-130 1109,-78 979,-78"/>
</g>
<g id="clust3" class="cluster">
<title>cluster_AppModule_imports</title>
<polygon fill="none" stroke="black" points="16,-78 16,-130 971,-130 971,-78 16,-78"/>
</g>
<!-- AppsModule -->
<g id="node1" class="node">
<title>AppsModule</title>
<polygon fill="#8dd3c7" stroke="black" points="962.6,-122 959.6,-126 938.6,-126 935.6,-122 873.4,-122 873.4,-86 962.6,-86 962.6,-122"/>
<text text-anchor="middle" x="918" y="-99.8" font-family="Times,serif" font-size="14.00">AppsModule</text>
</g>
<!-- AppModule -->
<g id="node8" class="node">
<title>AppModule</title>
<polygon fill="#8dd3c7" stroke="black" points="656.66,-187 653.66,-191 632.66,-191 629.66,-187 573.34,-187 573.34,-151 656.66,-151 656.66,-187"/>
<text text-anchor="middle" x="615" y="-164.8" font-family="Times,serif" font-size="14.00">AppModule</text>
</g>
<!-- AppsModule&#45;&gt;AppModule -->
<g id="edge1" class="edge">
<title>AppsModule&#45;&gt;AppModule</title>
<path fill="none" stroke="black" d="M918,-122.11C918,-141.34 918,-169 918,-169 918,-169 666.81,-169 666.81,-169"/>
<polygon fill="black" stroke="black" points="666.81,-165.5 656.81,-169 666.81,-172.5 666.81,-165.5"/>
</g>
<!-- AudienceModule -->
<g id="node2" class="node">
<title>AudienceModule</title>
<polygon fill="#8dd3c7" stroke="black" points="855.69,-122 852.69,-126 831.69,-126 828.69,-122 742.31,-122 742.31,-86 855.69,-86 855.69,-122"/>
<text text-anchor="middle" x="799" y="-99.8" font-family="Times,serif" font-size="14.00">AudienceModule</text>
</g>
<!-- AudienceModule&#45;&gt;AppModule -->
<g id="edge2" class="edge">
<title>AudienceModule&#45;&gt;AppModule</title>
<path fill="none" stroke="black" d="M799,-122.03C799,-138.4 799,-160 799,-160 799,-160 666.75,-160 666.75,-160"/>
<polygon fill="black" stroke="black" points="666.75,-156.5 656.75,-160 666.75,-163.5 666.75,-156.5"/>
</g>
<!-- AuthModule -->
<g id="node3" class="node">
<title>AuthModule</title>
<polygon fill="#8dd3c7" stroke="black" points="724.55,-122 721.55,-126 700.55,-126 697.55,-122 637.45,-122 637.45,-86 724.55,-86 724.55,-122"/>
<text text-anchor="middle" x="681" y="-99.8" font-family="Times,serif" font-size="14.00">AuthModule</text>
</g>
<!-- AuthModule&#45;&gt;AppModule -->
<g id="edge3" class="edge">
<title>AuthModule&#45;&gt;AppModule</title>
<path fill="none" stroke="black" d="M647.03,-122.11C647.03,-122.11 647.03,-140.99 647.03,-140.99"/>
<polygon fill="black" stroke="black" points="643.53,-140.99 647.03,-150.99 650.53,-140.99 643.53,-140.99"/>
</g>
<!-- ContactModesModule -->
<g id="node4" class="node">
<title>ContactModesModule</title>
<polygon fill="#8dd3c7" stroke="black" points="619.7,-122 616.7,-126 595.7,-126 592.7,-122 478.3,-122 478.3,-86 619.7,-86 619.7,-122"/>
<text text-anchor="middle" x="549" y="-99.8" font-family="Times,serif" font-size="14.00">ContactModesModule</text>
</g>
<!-- ContactModesModule&#45;&gt;AppModule -->
<g id="edge4" class="edge">
<title>ContactModesModule&#45;&gt;AppModule</title>
<path fill="none" stroke="black" d="M596.39,-122.11C596.39,-122.11 596.39,-140.99 596.39,-140.99"/>
<polygon fill="black" stroke="black" points="592.89,-140.99 596.39,-150.99 599.89,-140.99 592.89,-140.99"/>
</g>
<!-- NotificationTrackersModule -->
<g id="node5" class="node">
<title>NotificationTrackersModule</title>
<polygon fill="#8dd3c7" stroke="black" points="460.16,-122 457.16,-126 436.16,-126 433.16,-122 283.84,-122 283.84,-86 460.16,-86 460.16,-122"/>
<text text-anchor="middle" x="372" y="-99.8" font-family="Times,serif" font-size="14.00">NotificationTrackersModule</text>
</g>
<!-- NotificationTrackersModule&#45;&gt;AppModule -->
<g id="edge5" class="edge">
<title>NotificationTrackersModule&#45;&gt;AppModule</title>
<path fill="none" stroke="black" d="M372,-122.03C372,-138.4 372,-160 372,-160 372,-160 563.23,-160 563.23,-160"/>
<polygon fill="black" stroke="black" points="563.23,-163.5 573.23,-160 563.23,-156.5 563.23,-163.5"/>
</g>
<!-- NotificationsModule -->
<g id="node6" class="node">
<title>NotificationsModule</title>
<polygon fill="#8dd3c7" stroke="black" points="266.14,-122 263.14,-126 242.14,-126 239.14,-122 133.86,-122 133.86,-86 266.14,-86 266.14,-122"/>
<text text-anchor="middle" x="200" y="-99.8" font-family="Times,serif" font-size="14.00">NotificationsModule</text>
</g>
<!-- NotificationsModule&#45;&gt;AppModule -->
<g id="edge6" class="edge">
<title>NotificationsModule&#45;&gt;AppModule</title>
<path fill="none" stroke="black" d="M200,-122.11C200,-141.34 200,-169 200,-169 200,-169 563.31,-169 563.31,-169"/>
<polygon fill="black" stroke="black" points="563.31,-172.5 573.31,-169 563.31,-165.5 563.31,-172.5"/>
</g>
<!-- UsersModule -->
<g id="node7" class="node">
<title>UsersModule</title>
<polygon fill="#8dd3c7" stroke="black" points="115.92,-122 112.92,-126 91.92,-126 88.92,-122 24.08,-122 24.08,-86 115.92,-86 115.92,-122"/>
<text text-anchor="middle" x="70" y="-99.8" font-family="Times,serif" font-size="14.00">UsersModule</text>
</g>
<!-- UsersModule&#45;&gt;AppModule -->
<g id="edge7" class="edge">
<title>UsersModule&#45;&gt;AppModule</title>
<path fill="none" stroke="black" d="M70,-122.29C70,-144.21 70,-178 70,-178 70,-178 563.14,-178 563.14,-178"/>
<polygon fill="black" stroke="black" points="563.14,-181.5 573.14,-178 563.14,-174.5 563.14,-181.5"/>
</g>
<!-- AppService -->
<g id="node9" class="node">
<title>AppService</title>
<ellipse fill="#fdb462" stroke="black" cx="1044" cy="-104" rx="56.74" ry="18"/>
<text text-anchor="middle" x="1044" y="-99.8" font-family="Times,serif" font-size="14.00">AppService</text>
</g>
<!-- AppService&#45;&gt;AppModule -->
<g id="edge8" class="edge">
<title>AppService&#45;&gt;AppModule</title>
<path fill="none" stroke="black" d="M1044,-122.29C1044,-144.21 1044,-178 1044,-178 1044,-178 666.92,-178 666.92,-178"/>
<polygon fill="black" stroke="black" points="666.92,-174.5 656.92,-178 666.92,-181.5 666.92,-174.5"/>
</g>
</g>
</svg>
